<?xml version="1.0" encoding="utf-8"?>
<!-- Generator: Adobe Illustrator 25.2.3, SVG Export Plug-In . SVG Version: 6.00 Build 0)  -->
<svg version="1.1" id="Layer_1" xmlns="http://www.w3.org/2000/svg" xmlns:xlink="http://www.w3.org/1999/xlink" x="0px" y="0px"
	 viewBox="0 0 1008.9 251.9" style="enable-background:new 0 0 1008.9 251.9;" xml:space="preserve">
<style type="text/css">
	.st0{fill:#26D07C;}
	.st1{fill:#2A3251;}
	.st2{fill:#FFD45B;}
</style>
<g>
	<path class="st0" d="M976.6,2.5c-6,52.1-191.4,249.3-438.8,245.6c-2.5,0-5,0-7.4,0C303.5,248,90.5,137,6.6,2.6H283V2.5H976.6z"/>
	<path class="st1" d="M1002.3,2.5c-128.1,205-325.9,236.2-464.8,236.2c-2.5,0-5,0-7.4,0C197.1,226.6,38.3,2.6,38.3,2.6H283l6.2-0.1
		H1002.3z"/>
	<path class="st2" d="M1002.3,2.5c-53.9,119.4-302.9,196.2-417.2,196.2c-123.4,0-363.6-76.7-417.6-196.2H1002.3z"/>
</g>
</svg>
