<?xml version="1.0" encoding="utf-8"?>
<!-- Generator: Adobe Illustrator 25.2.3, SVG Export Plug-In . SVG Version: 6.00 Build 0)  -->
<svg version="1.1" id="Layer_1" xmlns="http://www.w3.org/2000/svg" xmlns:xlink="http://www.w3.org/1999/xlink" x="0px" y="0px"
	 viewBox="0 0 158.6 73.7" style="enable-background:new 0 0 158.6 73.7;" xml:space="preserve">
<style type="text/css">
	.st0{fill:#2A3251;}
	.st1{fill:#FFD45B;}
	.st2{fill:#26D07C;}
</style>
<g>
	<path class="st0" d="M153.7,41c-1.5-1.5-3.3-2.4-5.4-2.7v-2.5c1.3-0.5,2.4-1.2,3.4-2.2c1.8-1.8,2.8-4.1,2.8-6.7
		c0-2.5-1-4.9-2.8-6.7c-1-1-2.1-1.7-3.4-2.1v-1.3c0-2.5-0.9-4.8-2.7-6.6l-0.1-0.1c-1.8-1.7-4.1-2.7-6.6-2.7c-2.5,0-4.8,0.9-6.6,2.7
		l-0.2,0.2c-1.7,1.8-2.6,4.1-2.6,6.5v0.5c-0.6,0.1-1.1,0.3-1.7,0.5c-1.5-0.4-3.1-0.6-4.6-0.6H123c-1.5,0-2.9,0.2-4.3,0.5
		c0.1-0.5,0.1-1,0.1-1.6c0-2.5-1-4.9-2.8-6.6c-1.8-1.8-4.1-2.7-6.6-2.7H97.1c-2.5,0-4.8,1-6.6,2.7l-0.1,0.1
		c-1.7,1.8-2.7,4.1-2.7,6.6v5.5c-2.1-2.3-4.8-3.9-7.9-4.6c0.3-0.8,0.5-1.6,0.6-2.5c0.5-3.7-0.9-6.9-2.3-8.7l-2.6-3.1L71.5,4
		c-3.6,1-6.4,3-8.3,5.5L61.4,9l-0.3,0.3c-1.7-1.4-3.8-2.2-6-2.2c-2.5,0-4.8,0.9-6.6,2.7l-0.2,0.2c-1.7,1.8-2.7,4.1-2.7,6.6v1.4
		c-1.8-0.6-3.8-1-5.9-1h-0.2c-4.7,0-9,1.8-12.4,5.1c-3.2,3.2-5,7.3-5.1,11.9V15.4c0-2.5-1-4.8-2.7-6.6l-0.1-0.1
		C17.5,6.9,15.2,6,12.7,6c-2.5,0-4.8,1-6.6,2.7L6,8.7c-1.8,1.8-2.7,4.1-2.7,6.6v31.9c0,2.5,0.9,4.8,2.7,6.6l0.2,0.2
		c1.8,1.7,4.1,2.6,6.5,2.6h11.2c0.9,1.6,2.2,2.9,3.8,3.8l0.6,0.3c2.7,1.6,5.6,3.2,8.7,4.4c9.6,3.9,19.7,4.9,30,3.1
		c1.2,1,2.8,1.9,5.2,1.9c1,0,2.1-0.1,3.3-0.5c7.1-2,13.7-5.4,19.5-10c0.9-0.7,1.7-1.4,2.4-2c0.2-0.2,0.5-0.5,0.8-0.7h11.3
		c2.1,0,4-0.7,5.6-1.9c2.4,1.2,5.1,1.9,7.9,1.9h0.2c1.6,0,3.2-0.2,4.7-0.6c1.1,0.4,2.2,0.6,3.5,0.6c2.5,0,4.8-0.9,6.5-2.6
		c2.7,1.7,5.9,2.6,9.3,2.6c2.5,0,4.9-1,6.6-2.7c1.8-1.8,2.8-4.1,2.8-6.7C156.5,45.1,155.5,42.8,153.7,41z M51.7,52.4
		c-0.1,0-0.2-0.1-0.3-0.1c0,0,0.1-0.1,0.1-0.1C51.6,52.3,51.6,52.4,51.7,52.4z"/>
	<g>
		<g>
			<g>
				<g>
					<path class="st1" d="M29.4,47.3c0,0.8-0.3,1.6-0.9,2.2c-0.6,0.6-1.3,0.9-2.2,0.9H12.7c-0.8,0-1.6-0.3-2.2-0.9
						c-0.6-0.6-0.9-1.4-0.9-2.2V15.4c0-0.8,0.3-1.6,0.9-2.2c0.6-0.6,1.4-0.9,2.2-0.9c0.8,0,1.6,0.3,2.2,0.9c0.6,0.6,0.9,1.3,0.9,2.2
						v28.9h10.5c0.8,0,1.6,0.3,2.2,0.9C29.1,45.7,29.4,46.5,29.4,47.3z"/>
				</g>
				<g>
					<path class="st1" d="M50.8,32.5c-0.1-0.4-0.2-0.9-0.3-1.3c-0.1-0.3-0.2-0.7-0.4-1c-0.6-1.4-1.4-2.6-2.4-3.6
						c-2.2-2.2-4.9-3.3-8-3.3h-0.2c-3.1,0-5.7,1.1-7.9,3.3c-2.2,2.2-3.3,4.8-3.3,7.9v4.8c0,3.1,1.1,5.7,3.3,7.8
						c2.2,2.2,4.8,3.3,7.9,3.3h0.2c3.8,0,6.8-1.5,9-4.6c0.6-0.8,0.8-1.8,0.5-2.8c-0.3-1-1-1.7-1.9-2c-1.4-0.5-2.6-0.1-3.5,1.1
						c-1,1.4-2.4,2.1-4.1,2.1h-0.2c-1.4,0-2.6-0.5-3.6-1.5c-0.8-0.8-1.3-1.8-1.4-2.9l11,0c2.1,0,3.6-0.9,4.7-2.7
						c0.1-0.2,0.2-0.3,0.3-0.5c0.3-0.7,0.5-1.4,0.5-2.2C51,33.8,50.9,33.2,50.8,32.5z M34.6,33.8c0.1-1.1,0.6-2,1.4-2.9
						c1-1,2.2-1.5,3.6-1.5h0.2c1.4,0,2.5,0.5,3.5,1.5c0.8,0.8,1.3,1.8,1.4,2.9H34.6z"/>
				</g>
				<g>
					<path class="st1" d="M66.3,47.3c0,0.9-0.3,1.6-0.9,2.2c-0.6,0.6-1.3,0.9-2.2,0.9c-3.1,0-5.8-1.1-7.9-3.3
						c-2.2-2.2-3.3-4.8-3.3-7.9V16.5c0-0.8,0.3-1.6,0.9-2.2c0.6-0.6,1.4-0.9,2.2-0.9c0.8,0,1.6,0.3,2.2,0.9c0.6,0.6,0.9,1.3,0.9,2.2
						v7.1h3.1c0.8,0,1.6,0.3,2.2,0.9c0.6,0.6,0.9,1.3,0.9,2.2s-0.3,1.6-0.9,2.2c-0.6,0.6-1.3,0.9-2.2,0.9h-3.1v9.5
						c0,1.4,0.5,2.6,1.5,3.6c1,1,2.2,1.5,3.6,1.5h0c0.8,0,1.6,0.3,2.2,0.9C66,45.7,66.3,46.5,66.3,47.3z"/>
				</g>
				<g>
					<path class="st1" d="M85.4,43.9c-0.5,1.9-1.7,3.5-3.5,4.7c-1.7,1.2-3.7,1.8-5.9,1.8c-1.9,0-3.7-0.5-5.2-1.4
						c-1.5-0.9-2.7-2.2-3.5-3.7c-0.5-1-0.5-2,0.2-3c0.7-0.9,1.6-1.4,2.8-1.4c1.3,0,2.4,0.6,3,1.8c0.5,1,1.4,1.5,2.6,1.5h0.1
						c0.9,0,1.6-0.3,2.2-0.9c0.6-0.6,0.8-1.2,0.7-2c-0.1-0.6-0.4-1.1-1-1.6c-0.6-0.4-1.3-0.7-2.1-0.7c-2.8-0.1-5.1-1.1-6.8-3.2
						c-1.8-2.1-2.3-4.5-1.5-7.1c0.5-1.7,1.6-3.1,3.2-4.2c1.6-1,3.4-1.6,5.3-1.6h0.1c3.4,0,6,1.4,7.7,4.1c0.6,1,0.6,2.1,0,3.1
						c-0.6,1-1.6,1.5-2.8,1.5c-1.2,0-2.2-0.6-2.9-1.6c-0.4-0.7-1-1-1.9-1c-0.6,0-1.1,0.1-1.5,0.4c-0.4,0.3-0.6,0.6-0.7,1
						c-0.1,0.6,0,1.1,0.4,1.5c0.5,0.5,1,0.7,1.7,0.7c3.1,0,5.6,1.1,7.5,3.3C85.6,38.4,86.2,41,85.4,43.9z"/>
				</g>
				<g>
					<path class="st1" d="M111.6,45.5c0.6,0.6,0.9,1.3,0.9,2.2c0,0.9-0.3,1.6-0.9,2.2c-0.6,0.6-1.3,0.9-2.2,0.9H97.1
						c-0.8,0-1.6-0.3-2.2-0.9c-0.6-0.6-0.9-1.4-0.9-2.2V16.1c0-0.8,0.3-1.6,0.9-2.2c0.6-0.6,1.4-0.9,2.2-0.9h12.4
						c0.8,0,1.6,0.3,2.2,0.9c0.6,0.6,0.9,1.3,0.9,2.2c0,0.9-0.3,1.6-0.9,2.2c-0.6,0.6-1.3,0.9-2.2,0.9h-9.4v8.3h7.9
						c0.8,0,1.6,0.3,2.2,0.9c0.6,0.6,0.9,1.3,0.9,2.2c0,0.8-0.3,1.6-0.9,2.2c-0.6,0.6-1.3,0.9-2.2,0.9h-7.9v10.9h9.4
						C110.3,44.6,111.1,44.9,111.6,45.5z"/>
				</g>
				<g>
					<path class="st1" d="M133.5,24.4c-0.6-0.6-1.3-0.9-2.2-0.9c-1.2,0-2.1,0.5-2.6,1.4c-1.7-1-3.5-1.4-5.5-1.4H123
						c-3.1,0-5.7,1.1-7.9,3.3c-2.2,2.2-3.3,4.8-3.3,7.9v4.8c0,3.1,1.1,5.7,3.3,7.9c2.2,2.2,4.8,3.3,7.9,3.3h0.2c2,0,3.8-0.5,5.5-1.4
						c0.5,0.9,1.4,1.4,2.6,1.4c0.9,0,1.6-0.3,2.2-0.9c0.6-0.6,0.9-1.3,0.9-2.2V26.6C134.4,25.8,134.1,25,133.5,24.4z M123.2,44.6
						H123c-1.4,0-2.6-0.5-3.6-1.5c-1-1-1.5-2.2-1.5-3.6v-4.8c0-1.4,0.5-2.6,1.5-3.6c1-1,2.2-1.5,3.6-1.5h0.2c1.4,0,2.6,0.5,3.6,1.5
						c1,1,1.5,2.2,1.5,3.6v4.8c0,1.4-0.5,2.6-1.5,3.6C125.8,44.1,124.6,44.6,123.2,44.6z"/>
				</g>
				<g>
					<path class="st1" d="M150.1,47.6c0,0.9-0.3,1.6-0.9,2.2c-0.6,0.6-1.3,0.9-2.2,0.9c-3.1,0-5.8-1.1-7.9-3.3
						c-2.2-2.2-3.3-4.8-3.3-7.9V16.8c0-0.8,0.3-1.6,0.9-2.2c0.6-0.6,1.4-0.9,2.2-0.9c0.8,0,1.6,0.3,2.2,0.9c0.6,0.6,0.9,1.3,0.9,2.2
						v7.1h3.1c0.8,0,1.6,0.3,2.2,0.9c0.6,0.6,0.9,1.3,0.9,2.2c0,0.9-0.3,1.6-0.9,2.2c-0.6,0.6-1.3,0.9-2.2,0.9H142v9.5
						c0,1.4,0.5,2.6,1.5,3.6c1,1,2.2,1.5,3.6,1.5c0.9,0,1.6,0.3,2.2,0.9C149.8,46.1,150.1,46.8,150.1,47.6z"/>
				</g>
				<g>
					<path class="st2" d="M68,21.4c0.2-1.9,0.9-4.5,2.8-7c-0.4,0.4-2.5,3.1-3.9,6.2c-0.4-2.6-0.6-8.7,6.4-10.6
						C73.3,10.1,77.5,15,68,21.4z"/>
					<path class="st2" d="M65.7,20.9c-0.1-0.8-0.4-1.8-1.2-2.9c0.2,0.2,1,1.3,1.6,2.6c0.2-1.1,0.2-3.6-2.6-4.4
						C63.5,16.2,61.8,18.2,65.7,20.9z"/>
				</g>
			</g>
		</g>
		<path class="st1" d="M93.7,51.8c-0.6,0.4-1.2,0.7-1.7,1.1c-4.6,3.7-9.6,6.5-15.1,8.4c-0.4,0.1-0.8,0.3-1.2,0.4
			c-0.2,0-0.5-0.2-0.6-0.4c-0.1-0.1,0.1-0.4,0.3-0.5c0.3-0.2,0.7-0.3,1.1-0.4c5.3-2,10.2-4.8,14.6-8.5c0.5-0.4,0.9-1,1.4-1.5
			c-0.1-0.1-0.2-0.2-0.3-0.3c-0.5,0.3-1.1,0.6-1.6,1c-4.4,3.5-9.2,6.2-14.5,8.1c-0.4,0.1-0.7,0.3-1.1,0.3c-0.2,0-0.5-0.2-0.6-0.4
			c-0.1-0.1,0.1-0.4,0.3-0.5c0.4-0.2,0.8-0.3,1.2-0.5c5-1.9,9.6-4.6,13.7-8c0.5-0.4,0.9-0.9,1.3-1.4c-0.1-0.1-0.2-0.2-0.3-0.4
			c-0.6,0.4-1.2,0.7-1.7,1.2c-4.1,3.3-8.6,5.7-13.5,7.5c-0.3,0.1-0.6,0.3-1,0.3c-0.2,0-0.5-0.2-0.7-0.3c0.1-0.2,0.2-0.5,0.4-0.7
			c0.3-0.2,0.6-0.3,0.9-0.4c4.7-1.8,9-4.3,12.8-7.5c0.5-0.4,1-1,1.4-1.5c-0.1-0.1-0.2-0.2-0.3-0.4c-0.5,0.3-1,0.5-1.5,0.9
			c-4.7,3.8-9.9,6.5-15.7,8.1c-1.3,0.4-2.4,0.9-2.3,2.6c0,1.1-0.9,1.4-1.9,1.6c-5.4,0.7-10.7,0.4-16-0.7c-6.4-1.4-12.2-4.1-17.5-8
			c-0.1-0.1-0.2-0.1-0.2-0.2c-1.6-1.1-3.5-1-4.4,0.3c-0.8,1.2-0.3,3.1,1.4,4c2.8,1.6,5.6,3.2,8.5,4.4c9.2,3.7,18.6,4.5,28.3,2.4
			c1.3-0.3,2.3-0.2,3,1.2c0.7,1.3,1.9,1,3.1,0.7c6.4-1.8,12.2-4.8,17.4-8.9c1-0.8,2-1.7,2.9-2.6C94,52.1,93.8,51.9,93.7,51.8z"/>
	</g>
</g>
</svg>
