<?xml version="1.0" encoding="utf-8"?>
<!-- Generator: Adobe Illustrator 25.2.3, SVG Export Plug-In . SVG Version: 6.00 Build 0)  -->
<svg version="1.1" id="Layer_1" xmlns="http://www.w3.org/2000/svg" xmlns:xlink="http://www.w3.org/1999/xlink" x="0px" y="0px"
	 viewBox="0 0 128.7 117.3" style="enable-background:new 0 0 128.7 117.3;" xml:space="preserve">
<style type="text/css">
	.st0{fill:#FFD55A;}
	.st1{fill:#293250;}
	.st2{fill:#26D07C;}
</style>
<g>
	<g>
		<g>
			<g>
				<g>
					<g>
						<g>
							<g>
								<g>
									<path class="st0" d="M91.6,9.7l-0.8,1.2c-0.4,0.5-0.7,1.1-0.9,1.6l-0.6,1.3l-0.7-1.2c-0.3-0.4-0.6-0.8-0.9-1.2L87.3,11
										l-0.5-0.5l0.7-0.3c0,0,0.1,0.1,0.1,0.1c0.2,0.2,0.3,0.3,0.5,0.5c0.4,0.4,0.7,0.9,1,1.3c0.3-0.6,0.6-1.2,1-1.7
										c0.2-0.3,0.4-0.5,0.6-0.8L91.6,9.7z"/>
									<path class="st0" d="M90.7,9.7l-0.6,0c-0.1,0-0.3,0-0.4,0c-0.1,0.1-0.1,0.2-0.2,0.3c-0.1,0.2-0.2,0.4-0.3,0.5
										c0,0.1-0.1,0.1-0.1,0.2c0,0-0.1-0.1-0.1-0.1c-0.1-0.1-0.1-0.2-0.2-0.2c-0.1-0.1-0.2-0.3-0.4-0.4c-0.2,0-0.3,0.1-0.5,0.2
										l-0.3,0.1l-0.7,0.3l0.5,0.5l0.3,0.3c0.3,0.4,0.6,0.8,0.9,1.2l0.7,1.2l0.6-1.3c0.3-0.5,0.6-1.1,0.9-1.6l0.8-1.2L90.7,9.7z"
										/>
									<path class="st0" d="M126,103.6c0,3-1.2,5.9-3.4,8c-2.1,2.1-5,3.3-8,3.3c-4.1,0-7.8-1.1-11.2-3.2c-2.1,2-4.9,3.2-7.9,3.2
										c-1.5,0-2.9-0.3-4.2-0.8c-1.8,0.5-3.7,0.8-5.6,0.8h-0.2c-3.4,0-6.6-0.8-9.5-2.3c-2,1.5-4.3,2.3-6.8,2.3h-15
										c-3,0-5.8-1.1-7.9-3.2c0,0-0.1-0.1-0.2-0.2c-2.1-2.2-3.3-5-3.3-8c-2.3,1.1-5.1,1.1-7.3-0.3c-0.3-0.2-0.7-0.4-1-0.6
										l-0.4-0.2c-1-0.6-2-1.2-3.1-1.9c-7.6-5.1-14-11.5-19-19c-3-4.5-2.6-8.1-1.6-10.4C4.6,60,2,47.9,2.9,35.2
										c0.3-4.2,1.1-8.3,1.9-11.8l0.2-0.8c0.7-3.2,2.6-6.1,5.3-7.7c2.4-1.5,5.2-2,7.8-1.4c0.5-1.9,1.5-3.6,2.9-5L21,8.3
										C23.2,6.2,26,5,29,5c3,0,5.8,1.2,8,3.3L37,8.3c0,0,0,0,0,0l0,0c2.1,2.1,3.3,5,3.3,8v22.2c0.2-5.4,2.3-10.2,6.2-14.1
										c4-4,9.2-6.2,14.9-6.2h0.2c2.5,0,4.8,0.4,7.1,1.2v-1.7c0-3,1.1-5.7,3.2-7.9l0.2-0.2c2.2-2.1,4.9-3.2,8-3.2
										c3,0,5.7,1.1,7.9,3.2c0,0,0.1,0.1,0.1,0.1l0.1,0.1c0.1,0.1,0.1,0.1,0.2,0.2c-0.2,0-0.3,0.1-0.5,0.2l-0.3,0.1l-0.7,0.3
										l0.5,0.5l0.3,0.3c0.3,0.4,0.6,0.8,0.9,1.2l0.7,1.2l0.6-1.3c0.3-0.5,0.6-1.1,0.9-1.6l0.8-1.2l-0.9,0l-0.6,0
										c-0.1,0-0.3,0-0.4,0C92,6.3,95.6,3.9,100,2.6c2.9-0.8,6,0.1,7.9,2.4c1.8,2.1,3.4,5.9,2.8,10.4c-0.1,1-0.4,2-0.7,3
										c4.9,1,8.8,3.8,11.5,8.2c2.2,3.6,2.3,7.8,0.1,11.4c3,4.3,3.9,9.5,2.5,14.7c-1.1,4.1-3.6,7.5-7.3,10
										c-0.4,0.2-0.7,0.5-1.1,0.7c0.3,1,0.4,2,0.4,3v1.6c1.5,0.6,2.9,1.4,4.1,2.6c2.2,2.1,3.4,5,3.4,8.1c0,3.1-1.2,5.9-3.4,8
										c-1.2,1.2-2.6,2.1-4.1,2.6v3c2.5,0.3,4.7,1.5,6.5,3.2C124.8,97.8,126,100.6,126,103.6z"/>
								</g>
							</g>
							<g>
								<g>
									<path class="st0" d="M90.1,10.5c-0.4,0.5-0.7,1.1-1,1.7c-0.3-0.5-0.6-0.9-1-1.3C88.8,10.6,89.4,10.5,90.1,10.5z"/>
									<path class="st0" d="M91.6,9.7l-0.8,1.2c-0.4,0.5-0.7,1.1-0.9,1.6l-0.6,1.3l-0.7-1.2c-0.3-0.4-0.6-0.8-0.9-1.2L87.3,11
										l-0.5-0.5l0.7-0.3l0.3-0.1c0.2-0.1,0.3-0.1,0.5-0.2c0.4-0.1,0.9-0.2,1.3-0.2c0.1,0,0.3,0,0.4,0l0.6,0L91.6,9.7z"/>
								</g>
							</g>
						</g>
					</g>
				</g>
			</g>
		</g>
	</g>
	<g>
		<g>
			<g>
				<g>
					<g>
						<g>
							<path class="st1" d="M49.2,54.9c0,1-0.4,1.9-1.1,2.6c-0.7,0.7-1.6,1.1-2.6,1.1H29c-1,0-1.9-0.4-2.6-1.1
								c-0.7-0.8-1.1-1.6-1.1-2.7V16.3c0-1,0.4-1.9,1.1-2.6c0.7-0.7,1.6-1.1,2.6-1.1c1,0,1.9,0.4,2.6,1.1c0.7,0.7,1.1,1.6,1.1,2.6
								v34.8h12.7c1,0,1.9,0.4,2.6,1.1C48.8,53,49.2,53.9,49.2,54.9z"/>
						</g>
						<g>
							<path class="st1" d="M75,37.1c-0.1-0.5-0.2-1.1-0.4-1.6c-0.1-0.4-0.3-0.8-0.4-1.2c-0.7-1.6-1.6-3.1-2.9-4.4
								c-2.6-2.7-5.9-4-9.6-4h-0.2c-3.7,0-6.9,1.3-9.5,4c-2.6,2.6-4,5.8-4,9.5v5.8c0,3.7,1.4,6.9,4,9.4c2.6,2.6,5.8,3.9,9.5,3.9h0.2
								c4.5,0,8.2-1.9,10.9-5.5c0.7-1,0.9-2.1,0.6-3.3c-0.4-1.2-1.2-2-2.3-2.4c-1.7-0.6-3.2-0.1-4.2,1.3c-1.2,1.7-2.8,2.5-4.9,2.5
								h-0.2c-1.7,0-3.1-0.6-4.3-1.8c-1-1-1.6-2.1-1.7-3.4l13.2,0c2.5,0,4.4-1.1,5.6-3.3c0.1-0.2,0.2-0.4,0.3-0.6
								c0.4-0.8,0.6-1.7,0.6-2.7C75.2,38.6,75.1,37.8,75,37.1z M55.4,38.5c0.2-1.3,0.7-2.5,1.7-3.4c1.2-1.2,2.6-1.8,4.3-1.8h0.2
								c1.7,0,3.1,0.6,4.3,1.8c1,1,1.5,2.1,1.7,3.5H55.4z"/>
						</g>
						<g>
							<path class="st1" d="M93.6,54.9c0,1-0.4,1.9-1.1,2.6c-0.7,0.7-1.6,1.1-2.6,1.1c-3.7,0-6.9-1.3-9.6-4c-2.6-2.6-4-5.8-4-9.5
								V17.7c0-1,0.4-1.9,1.1-2.6c0.8-0.7,1.6-1.1,2.7-1.1c1,0,1.9,0.4,2.6,1.1c0.7,0.8,1.1,1.6,1.1,2.6v8.5h3.7
								c1,0,1.9,0.4,2.6,1.1c0.7,0.7,1.1,1.6,1.1,2.6s-0.4,1.9-1.1,2.6c-0.7,0.7-1.6,1.1-2.6,1.1h-3.7v11.4c0,1.7,0.6,3.1,1.8,4.3
								c1.2,1.2,2.6,1.8,4.3,1.8h0c1,0,1.9,0.4,2.6,1.1C93.3,53,93.6,53.9,93.6,54.9z"/>
						</g>
						<g>
							<path class="st1" d="M116.7,50.7c-0.6,2.3-2,4.2-4.2,5.7c-2.1,1.4-4.5,2.2-7.1,2.2c-2.3,0-4.4-0.6-6.3-1.7
								c-1.9-1.1-3.3-2.6-4.2-4.4c-0.6-1.2-0.5-2.5,0.2-3.6c0.8-1.1,2-1.7,3.4-1.7c1.6,0,2.9,0.8,3.7,2.2c0.6,1.2,1.7,1.8,3.2,1.8
								h0.2c1.1,0,2-0.4,2.7-1.1c0.7-0.7,0.9-1.5,0.8-2.4c-0.1-0.8-0.5-1.4-1.2-1.9c-0.7-0.5-1.5-0.8-2.5-0.8
								c-3.4-0.1-6.2-1.3-8.2-3.8c-2.1-2.5-2.7-5.4-1.8-8.6c0.6-2,1.9-3.8,3.8-5.1c1.9-1.3,4.1-1.9,6.4-1.9h0.1c4.1,0,7.2,1.7,9.2,5
								c0.8,1.2,0.8,2.5,0,3.7c-0.8,1.2-2,1.8-3.4,1.8s-2.7-0.7-3.5-1.9c-0.5-0.8-1.2-1.2-2.3-1.2c-0.7,0-1.3,0.2-1.8,0.5
								c-0.5,0.3-0.8,0.8-0.9,1.3c-0.2,0.7,0,1.3,0.5,1.8c0.5,0.6,1.2,0.9,2,0.9c3.7,0,6.7,1.3,9,3.9
								C116.9,44.2,117.7,47.3,116.7,50.7z"/>
						</g>
						<g>
							<path class="st1" d="M71.9,101c0.7,0.7,1.1,1.6,1.1,2.6c0,1-0.4,1.9-1.1,2.6c-0.7,0.7-1.6,1.1-2.6,1.1h-15
								c-1,0-1.9-0.4-2.6-1.1c-0.7-0.8-1.1-1.6-1.1-2.7v-38c0-1,0.4-1.9,1.1-2.6c0.8-0.7,1.6-1.1,2.7-1.1h15c1,0,1.9,0.4,2.6,1.1
								c0.7,0.7,1.1,1.6,1.1,2.6c0,1-0.4,1.9-1.1,2.6c-0.7,0.7-1.6,1.1-2.6,1.1H58v10.1h9.5c1,0,1.9,0.4,2.6,1.1
								c0.7,0.7,1.1,1.6,1.1,2.6c0,1-0.4,1.9-1.1,2.6c-0.7,0.7-1.6,1.1-2.6,1.1H58V100h11.3C70.3,100,71.2,100.3,71.9,101z"/>
						</g>
						<g>
							<path class="st1" d="M98.2,75.6c-0.7-0.7-1.6-1.1-2.6-1.1c-1.5,0-2.6,0.6-3.2,1.7c-2-1.1-4.3-1.7-6.6-1.7h-0.2
								c-3.7,0-6.9,1.3-9.6,4c-2.6,2.6-4,5.8-4,9.6v5.8c0,3.7,1.3,6.9,4,9.5c2.6,2.6,5.8,4,9.6,4h0.2c2.4,0,4.6-0.6,6.6-1.7
								c0.6,1.1,1.7,1.7,3.2,1.7c1,0,1.9-0.4,2.6-1.1c0.7-0.7,1.1-1.6,1.1-2.6V78.2C99.3,77.2,99,76.4,98.2,75.6z M85.8,100h-0.2
								c-1.7,0-3.1-0.6-4.3-1.8c-1.2-1.2-1.8-2.6-1.8-4.3v-5.8c0-1.7,0.6-3.1,1.8-4.3c1.2-1.2,2.6-1.8,4.3-1.8h0.2
								c1.7,0,3.1,0.6,4.3,1.8c1.2,1.2,1.8,2.6,1.8,4.3v5.8c0,1.7-0.6,3.1-1.8,4.3C88.9,99.4,87.5,100,85.8,100z"/>
						</g>
						<g>
							<path class="st1" d="M118.3,103.6c0,1-0.4,1.9-1.1,2.6c-0.7,0.7-1.6,1.1-2.6,1.1c-3.7,0-7-1.3-9.6-4c-2.6-2.6-4-5.8-4-9.5
								V66.5c0-1,0.4-1.9,1.1-2.6c0.8-0.7,1.6-1.1,2.7-1.1c1,0,1.9,0.4,2.6,1.1c0.7,0.8,1.1,1.6,1.1,2.6V75h3.7c1,0,1.9,0.4,2.6,1.1
								c0.7,0.7,1.1,1.6,1.1,2.6c0,1-0.4,1.9-1.1,2.6c-0.7,0.7-1.6,1.1-2.6,1.1h-3.7v11.4c0,1.7,0.6,3.1,1.8,4.3
								c1.2,1.2,2.6,1.8,4.3,1.8c1.1,0,1.9,0.4,2.6,1.1C118,101.8,118.3,102.6,118.3,103.6z"/>
						</g>
						<g>
							<path class="st2" d="M95.7,23.7c0.3-2.3,1.1-5.4,3.4-8.4c-0.4,0.5-3,3.7-4.7,7.5c-0.5-3.2-0.7-10.4,7.7-12.9
								C102.1,9.9,107.2,16,95.7,23.7z"/>
							<path class="st2" d="M93,23c-0.1-0.9-0.5-2.2-1.4-3.5c0.2,0.2,1.2,1.5,1.9,3.1c0.2-1.3,0.3-4.3-3.2-5.3
								C90.4,17.3,88.3,19.8,93,23z"/>
						</g>
					</g>
				</g>
			</g>
		</g>
		<path class="st1" d="M39.9,96.3c-0.6-0.5-1.3-1.1-1.9-1.5c-6-3.9-11.2-8.7-15.5-14.4c-0.3-0.4-0.7-0.8-0.9-1.3
			c-0.1-0.2,0-0.7,0.2-0.9c0.1-0.1,0.6,0,0.8,0.1c0.4,0.3,0.6,0.7,0.9,1.1c4.3,5.5,9.5,10.1,15.4,13.8c0.7,0.4,1.5,0.7,2.3,1.1
			c0.1-0.2,0.2-0.3,0.3-0.5c-0.6-0.5-1.2-1-1.8-1.5c-5.7-3.8-10.7-8.4-14.9-13.9c-0.3-0.4-0.6-0.7-0.8-1.2c-0.1-0.2,0.1-0.7,0.2-0.9
			c0.1-0.1,0.6,0,0.7,0.1c0.4,0.3,0.7,0.8,1,1.2c4.1,5.1,8.9,9.5,14.5,12.9c0.7,0.4,1.4,0.6,2.1,1c0.1-0.2,0.2-0.3,0.3-0.5
			c-0.7-0.5-1.3-1.1-2-1.5c-5.3-3.5-9.9-7.8-13.8-12.9c-0.2-0.3-0.6-0.6-0.7-1c-0.1-0.3,0.1-0.6,0.1-1c0.3,0.1,0.7,0,0.9,0.2
			c0.3,0.2,0.5,0.6,0.8,0.9c3.8,4.8,8.4,8.9,13.6,12.2c0.7,0.4,1.5,0.7,2.2,1.1c0.1-0.2,0.2-0.3,0.3-0.5c-0.5-0.5-1-1-1.6-1.4
			c-6.2-4-11.3-9.1-15.4-15.3c-0.9-1.4-1.9-2.4-3.9-1.8c-1.3,0.4-2-0.5-2.5-1.6c-2.8-6-4.6-12.3-5.2-18.9c-0.8-8,0.2-15.8,2.8-23.4
			c0-0.1,0.1-0.2,0.1-0.3c0.7-2.3-0.2-4.5-2-5c-1.7-0.4-3.7,0.9-4.2,3.2c-0.8,3.8-1.6,7.7-1.9,11.6c-0.8,12.1,1.8,23.4,7.8,34
			c0.8,1.4,1.1,2.6-0.2,3.9c-1.2,1.2-0.4,2.6,0.4,3.8c4.5,6.8,10.2,12.4,17,17c1.3,0.9,2.7,1.6,4.1,2.5
			C39.7,96.7,39.8,96.5,39.9,96.3z"/>
	</g>
</g>
</svg>
