<?xml version="1.0" encoding="utf-8"?>
<!-- Generator: Adobe Illustrator 25.2.3, SVG Export Plug-In . SVG Version: 6.00 Build 0)  -->
<svg version="1.1" id="Layer_1" xmlns="http://www.w3.org/2000/svg" xmlns:xlink="http://www.w3.org/1999/xlink" x="0px" y="0px"
	 viewBox="0 0 158.6 73.7" style="enable-background:new 0 0 158.6 73.7;" xml:space="preserve">
<style type="text/css">
	.st0{fill:#FFD55A;}
	.st1{fill:#293250;}
	.st2{fill:#26D07C;}
</style>
<g>
	<path class="st0" d="M153.5,41.3c-1.5-1.5-3.4-2.4-5.4-2.7v-2.5c1.3-0.5,2.4-1.2,3.4-2.2c1.8-1.8,2.8-4.1,2.8-6.7
		c0-2.6-1-4.9-2.8-6.7c-1-1-2.1-1.7-3.4-2.2V17c0-2.5-0.9-4.8-2.7-6.6l-0.1-0.1c-1.8-1.7-4.1-2.7-6.6-2.7c-2.5,0-4.8,0.9-6.6,2.7
		l-0.2,0.2c-1.7,1.8-2.6,4.1-2.6,6.6v0.5c-0.6,0.1-1.1,0.3-1.7,0.5c-1.5-0.4-3.1-0.6-4.7-0.6h-0.2c-1.5,0-2.9,0.2-4.3,0.5
		c0.1-0.5,0.1-1,0.1-1.6c0-2.5-1-4.9-2.8-6.7c-1.8-1.8-4.1-2.8-6.7-2.8H96.6c-2.5,0-4.8,1-6.6,2.7l-0.1,0.1
		c-1.7,1.8-2.7,4.1-2.7,6.6v5.5c-2.1-2.3-4.8-3.9-7.9-4.6c0.3-0.8,0.5-1.7,0.6-2.5c0.5-3.8-0.9-7-2.3-8.7L74.9,3l-3.9,1.1
		c-3.6,1-6.4,3-8.4,5.6l-1.9-0.5l-0.3,0.3c-1.7-1.4-3.8-2.2-6.1-2.2c-2.5,0-4.8,0.9-6.6,2.7l-0.2,0.2c-1.7,1.8-2.7,4.1-2.7,6.6v1.4
		c-1.9-0.7-3.8-1-5.9-1h-0.2c-4.8,0-9.1,1.8-12.4,5.1c-3.3,3.2-5,7.4-5.2,11.9V15.5c0-2.5-1-4.9-2.7-6.6l-0.1-0.1
		c-1.8-1.8-4.2-2.7-6.6-2.7c-2.5,0-4.9,1-6.7,2.7L5.1,8.9c-1.8,1.8-2.7,4.1-2.7,6.6v32.1c0,2.5,0.9,4.8,2.7,6.6l0.2,0.2
		c1.8,1.7,4.1,2.6,6.6,2.6h11.2c0.9,1.6,2.2,2.9,3.8,3.8l0.6,0.3c2.8,1.6,5.6,3.2,8.8,4.4c9.7,3.9,19.8,4.9,30.2,3.2
		c1.2,1,2.9,1.9,5.2,1.9c1,0,2.1-0.1,3.3-0.5c7.1-2,13.7-5.4,19.6-10.1c0.9-0.7,1.7-1.4,2.4-2.1c0.3-0.2,0.5-0.5,0.8-0.7h11.4
		c2.1,0,4-0.7,5.6-1.9c2.4,1.2,5.1,1.9,8,1.9h0.2c1.6,0,3.2-0.2,4.7-0.6c1.1,0.4,2.2,0.6,3.5,0.6c2.5,0,4.8-0.9,6.5-2.6
		c2.8,1.7,5.9,2.6,9.3,2.6c2.5,0,4.9-1,6.7-2.8c1.8-1.8,2.8-4.2,2.8-6.7C156.3,45.5,155.3,43.1,153.5,41.3z M51,52.8
		c-0.1,0-0.2-0.1-0.3-0.1c0,0,0.1-0.1,0.1-0.1C50.8,52.7,50.9,52.7,51,52.8z"/>
	<g>
		<g>
			<g>
				<g>
					<path class="st1" d="M28.6,47.6c0,0.8-0.3,1.6-0.9,2.2c-0.6,0.6-1.3,0.9-2.2,0.9H11.8c-0.8,0-1.6-0.3-2.2-0.9
						c-0.6-0.6-0.9-1.4-0.9-2.2V15.5c0-0.8,0.3-1.6,0.9-2.2c0.6-0.6,1.4-0.9,2.2-0.9c0.8,0,1.6,0.3,2.2,0.9c0.6,0.6,0.9,1.3,0.9,2.2
						v29h10.6c0.8,0,1.6,0.3,2.2,0.9C28.3,46.1,28.6,46.8,28.6,47.6z"/>
				</g>
				<g>
					<path class="st1" d="M50.1,32.8c-0.1-0.5-0.2-0.9-0.3-1.3c-0.1-0.3-0.2-0.7-0.4-1c-0.6-1.4-1.4-2.6-2.4-3.6
						c-2.2-2.2-4.9-3.4-8-3.4h-0.2c-3.1,0-5.8,1.1-7.9,3.3c-2.2,2.2-3.3,4.8-3.3,7.9v4.9c0,3.1,1.2,5.7,3.3,7.9
						c2.2,2.2,4.8,3.3,7.9,3.3H39c3.8,0,6.8-1.6,9.1-4.6c0.6-0.8,0.8-1.8,0.5-2.8c-0.3-1-1-1.7-1.9-2c-1.4-0.5-2.6-0.1-3.5,1.1
						c-1,1.4-2.4,2.1-4.1,2.1h-0.2c-1.4,0-2.6-0.5-3.6-1.5c-0.8-0.8-1.3-1.8-1.4-2.9l11,0c2.1,0,3.6-0.9,4.7-2.7
						c0.1-0.2,0.2-0.3,0.3-0.5c0.3-0.7,0.5-1.4,0.5-2.2C50.3,34.1,50.2,33.4,50.1,32.8z M33.8,34c0.1-1.1,0.6-2,1.4-2.9
						c1-1,2.2-1.5,3.6-1.5H39c1.4,0,2.6,0.5,3.6,1.5c0.8,0.8,1.3,1.8,1.4,2.9H33.8z"/>
				</g>
				<g>
					<path class="st1" d="M65.6,47.6c0,0.9-0.3,1.6-0.9,2.2c-0.6,0.6-1.3,0.9-2.2,0.9c-3.1,0-5.8-1.1-8-3.3
						c-2.2-2.2-3.3-4.9-3.3-7.9V16.7c0-0.8,0.3-1.6,0.9-2.2c0.6-0.6,1.4-0.9,2.2-0.9c0.8,0,1.6,0.3,2.2,0.9c0.6,0.6,0.9,1.4,0.9,2.2
						v7.1h3.1c0.8,0,1.6,0.3,2.2,0.9c0.6,0.6,0.9,1.3,0.9,2.2c0,0.9-0.3,1.6-0.9,2.2c-0.6,0.6-1.3,0.9-2.2,0.9h-3.1v9.5
						c0,1.4,0.5,2.6,1.5,3.6c1,1,2.2,1.5,3.6,1.5h0c0.8,0,1.6,0.3,2.2,0.9C65.3,46,65.6,46.8,65.6,47.6z"/>
				</g>
				<g>
					<path class="st1" d="M84.9,44.2c-0.5,1.9-1.7,3.5-3.5,4.8c-1.7,1.2-3.7,1.8-5.9,1.8c-1.9,0-3.7-0.5-5.3-1.4
						c-1.6-0.9-2.7-2.2-3.5-3.7c-0.5-1-0.5-2,0.2-3c0.7-0.9,1.6-1.4,2.8-1.4c1.4,0,2.4,0.6,3.1,1.8c0.5,1,1.4,1.5,2.7,1.5h0.1
						c0.9,0,1.6-0.3,2.2-0.9c0.6-0.6,0.8-1.3,0.7-2c-0.1-0.6-0.4-1.2-1-1.6c-0.6-0.4-1.3-0.7-2.1-0.7c-2.8-0.1-5.1-1.1-6.8-3.2
						c-1.8-2.1-2.3-4.5-1.5-7.1c0.5-1.7,1.6-3.1,3.2-4.2c1.6-1,3.4-1.6,5.3-1.6h0.1c3.4,0,6,1.4,7.7,4.1c0.6,1,0.6,2.1,0,3.1
						c-0.6,1-1.6,1.5-2.9,1.5c-1.2,0-2.2-0.6-2.9-1.6c-0.4-0.7-1-1-1.9-1c-0.6,0-1.1,0.1-1.5,0.4c-0.4,0.3-0.6,0.6-0.7,1.1
						c-0.1,0.6,0,1.1,0.4,1.5c0.5,0.5,1,0.7,1.7,0.7c3.1,0,5.6,1.1,7.5,3.3C85,38.7,85.6,41.3,84.9,44.2z"/>
				</g>
				<g>
					<path class="st1" d="M111.2,45.8c0.6,0.6,0.9,1.3,0.9,2.2c0,0.9-0.3,1.6-0.9,2.2c-0.6,0.6-1.3,0.9-2.2,0.9H96.6
						c-0.8,0-1.6-0.3-2.2-0.9c-0.6-0.6-0.9-1.4-0.9-2.2V16.3c0-0.8,0.3-1.6,0.9-2.2c0.6-0.6,1.4-0.9,2.2-0.9h12.5
						c0.8,0,1.6,0.3,2.2,0.9c0.6,0.6,0.9,1.3,0.9,2.2c0,0.9-0.3,1.6-0.9,2.2c-0.6,0.6-1.3,0.9-2.2,0.9h-9.4v8.4h7.9
						c0.8,0,1.6,0.3,2.2,0.9c0.6,0.6,0.9,1.3,0.9,2.2c0,0.8-0.3,1.6-0.9,2.2c-0.6,0.6-1.4,0.9-2.2,0.9h-7.9v10.9h9.4
						C109.9,44.9,110.6,45.2,111.2,45.8z"/>
				</g>
				<g>
					<path class="st1" d="M133.2,24.6c-0.6-0.6-1.3-0.9-2.2-0.9c-1.2,0-2.1,0.5-2.6,1.4c-1.7-1-3.5-1.4-5.5-1.4h-0.2
						c-3.1,0-5.8,1.1-8,3.3c-2.2,2.2-3.3,4.9-3.3,8v4.8c0,3.1,1.1,5.8,3.3,7.9c2.2,2.2,4.9,3.3,8,3.3h0.2c2,0,3.8-0.5,5.5-1.4
						c0.5,0.9,1.4,1.4,2.6,1.4c0.9,0,1.6-0.3,2.2-0.9c0.6-0.6,0.9-1.3,0.9-2.2V26.8C134.1,26,133.8,25.3,133.2,24.6z M122.8,44.9
						h-0.2c-1.4,0-2.6-0.5-3.6-1.5c-1-1-1.5-2.2-1.5-3.6V35c0-1.4,0.5-2.6,1.5-3.6c1-1,2.2-1.5,3.6-1.5h0.2c1.4,0,2.6,0.5,3.6,1.5
						c1,1,1.5,2.2,1.5,3.6v4.8c0,1.4-0.5,2.6-1.5,3.6C125.4,44.4,124.2,44.9,122.8,44.9z"/>
				</g>
				<g>
					<path class="st1" d="M149.9,48c0,0.9-0.3,1.6-0.9,2.2c-0.6,0.6-1.3,0.9-2.2,0.9c-3.1,0-5.8-1.1-8-3.3c-2.2-2.2-3.3-4.9-3.3-7.9
						V17c0-0.8,0.3-1.6,0.9-2.2c0.6-0.6,1.4-0.9,2.2-0.9c0.8,0,1.6,0.3,2.2,0.9c0.6,0.6,0.9,1.4,0.9,2.2v7.1h3.1
						c0.8,0,1.6,0.3,2.2,0.9c0.6,0.6,0.9,1.3,0.9,2.2c0,0.9-0.3,1.6-0.9,2.2c-0.6,0.6-1.3,0.9-2.2,0.9h-3.1v9.5
						c0,1.4,0.5,2.6,1.5,3.6c1,1,2.2,1.5,3.6,1.5c0.9,0,1.6,0.3,2.2,0.9C149.6,46.4,149.9,47.1,149.9,48z"/>
				</g>
				<g>
					<path class="st2" d="M67.3,21.6c0.2-1.9,0.9-4.5,2.8-7c-0.4,0.4-2.5,3.1-3.9,6.3c-0.4-2.6-0.6-8.7,6.5-10.7
						C72.7,10.2,76.9,15.2,67.3,21.6z"/>
					<path class="st2" d="M65.1,21.1c-0.1-0.8-0.4-1.9-1.2-2.9c0.2,0.2,1,1.3,1.6,2.6c0.2-1.1,0.2-3.6-2.7-4.4
						C62.9,16.4,61.1,18.4,65.1,21.1z"/>
				</g>
			</g>
		</g>
		<path class="st1" d="M93.2,52.1c-0.6,0.4-1.2,0.7-1.7,1.1c-4.6,3.7-9.6,6.5-15.2,8.5c-0.4,0.1-0.8,0.3-1.2,0.4
			c-0.2,0-0.5-0.2-0.6-0.4c-0.1-0.1,0.1-0.5,0.3-0.6c0.3-0.2,0.7-0.3,1.1-0.4c5.4-2,10.3-4.8,14.6-8.5c0.5-0.4,0.9-1,1.4-1.5
			c-0.1-0.1-0.2-0.2-0.3-0.3c-0.5,0.3-1.1,0.6-1.6,1c-4.4,3.5-9.2,6.2-14.5,8.1c-0.4,0.1-0.7,0.3-1.1,0.3c-0.2,0-0.5-0.2-0.6-0.4
			c-0.1-0.1,0.1-0.5,0.3-0.5c0.4-0.2,0.8-0.3,1.2-0.5c5-1.9,9.6-4.6,13.7-8.1c0.5-0.4,0.9-0.9,1.3-1.4c-0.1-0.1-0.2-0.2-0.3-0.4
			c-0.6,0.4-1.2,0.7-1.7,1.2c-4.1,3.3-8.6,5.8-13.6,7.5c-0.3,0.1-0.6,0.3-1,0.3c-0.2,0-0.5-0.2-0.7-0.3c0.1-0.2,0.2-0.5,0.4-0.7
			c0.3-0.2,0.6-0.3,0.9-0.4c4.7-1.8,9-4.3,12.9-7.5c0.5-0.4,1-1,1.4-1.5c-0.1-0.1-0.2-0.2-0.3-0.4c-0.5,0.3-1,0.5-1.5,0.9
			c-4.7,3.8-10,6.5-15.8,8.1c-1.3,0.4-2.4,0.9-2.4,2.6c0,1.1-0.9,1.4-1.9,1.6c-5.4,0.7-10.7,0.5-16.1-0.7
			c-6.4-1.4-12.3-4.1-17.6-8.1C33.1,51.1,33,51.1,33,51c-1.6-1.1-3.6-1-4.4,0.3c-0.8,1.2-0.3,3.1,1.4,4c2.8,1.6,5.6,3.2,8.6,4.4
			c9.2,3.7,18.7,4.5,28.5,2.5c1.3-0.3,2.3-0.2,3,1.2c0.7,1.3,1.9,1,3.1,0.7c6.4-1.8,12.2-4.8,17.5-8.9c1-0.8,2-1.7,2.9-2.6
			C93.4,52.4,93.3,52.3,93.2,52.1z"/>
	</g>
</g>
</svg>
