<?xml version="1.0" encoding="utf-8"?>
<!-- Generator: Adobe Illustrator 25.2.3, SVG Export Plug-In . SVG Version: 6.00 Build 0)  -->
<svg version="1.1" id="Layer_1" xmlns="http://www.w3.org/2000/svg" xmlns:xlink="http://www.w3.org/1999/xlink" x="0px" y="0px"
	 viewBox="0 0 128.7 117.3" style="enable-background:new 0 0 128.7 117.3;" xml:space="preserve">
<style type="text/css">
	.st0{fill:#293250;}
	.st1{fill:#FFD55A;}
	.st2{fill:#26D07C;}
</style>
<g>
	<g>
		<g>
			<g>
				<g>
					<g>
						<g>
							<g>
								<g>
									<path class="st0" d="M91.5,9l-0.8,1.2c-0.4,0.5-0.7,1.1-0.9,1.6l-0.6,1.3l-0.7-1.2c-0.3-0.4-0.6-0.8-0.9-1.2l-0.3-0.3
										l-0.5-0.5l0.7-0.3c0,0,0.1,0.1,0.1,0.1c0.2,0.2,0.3,0.3,0.5,0.5c0.4,0.4,0.7,0.9,1,1.3c0.3-0.6,0.6-1.2,1-1.7
										c0.2-0.3,0.4-0.5,0.6-0.8L91.5,9z"/>
									<path class="st0" d="M90.6,9L90,9c-0.1,0-0.3,0-0.4,0c-0.1,0.1-0.1,0.2-0.2,0.3c-0.1,0.2-0.2,0.4-0.3,0.5
										C89,9.9,89,10,88.9,10c0,0-0.1-0.1-0.1-0.1c-0.1-0.1-0.1-0.2-0.2-0.2c-0.1-0.1-0.2-0.3-0.4-0.4c-0.2,0-0.3,0.1-0.5,0.2
										l-0.3,0.1l-0.7,0.3l0.5,0.5l0.3,0.3c0.3,0.4,0.6,0.8,0.9,1.2l0.7,1.2l0.6-1.3c0.3-0.5,0.6-1.1,0.9-1.6L91.5,9L90.6,9z"/>
									<path class="st0" d="M125.9,103c0,3-1.2,5.9-3.4,8c-2.1,2.1-5,3.3-8,3.3c-4.1,0-7.8-1.1-11.2-3.2c-2.1,2-4.9,3.2-7.9,3.2
										c-1.5,0-2.9-0.3-4.2-0.8c-1.8,0.5-3.7,0.8-5.6,0.8h-0.2c-3.4,0-6.6-0.8-9.5-2.3c-2,1.5-4.3,2.3-6.8,2.3h-15
										c-3,0-5.8-1.1-7.9-3.2c0,0-0.1-0.1-0.2-0.2c-2.1-2.2-3.3-5-3.3-8c-2.3,1.1-5.1,1.1-7.3-0.3c-0.3-0.2-0.7-0.4-1-0.6
										l-0.4-0.2c-1-0.6-2-1.2-3.1-1.9c-7.6-5.1-14-11.5-19-19c-3-4.5-2.6-8.1-1.6-10.4c-6-11.3-8.5-23.5-7.7-36.2
										c0.3-4.2,1.1-8.3,1.9-11.8l0.2-0.8c0.7-3.2,2.6-6.1,5.3-7.7c2.4-1.5,5.2-2,7.8-1.4c0.5-1.9,1.5-3.6,2.9-5l0.1-0.1
										c2.2-2.1,5-3.3,8-3.3c3,0,5.8,1.2,8,3.3L37,7.6c0,0,0,0,0,0l0,0c2.1,2.1,3.3,5,3.3,8v22.2c0.2-5.4,2.3-10.2,6.2-14.1
										c4-4,9.2-6.2,14.9-6.2h0.2c2.5,0,4.8,0.4,7.1,1.2V17c0-3,1.1-5.7,3.2-7.9L72,8.9c2.2-2.1,4.9-3.2,8-3.2
										c3,0,5.7,1.1,7.9,3.2C87.9,8.9,88,9,88,9l0.1,0.1c0.1,0.1,0.1,0.1,0.2,0.2c-0.2,0-0.3,0.1-0.5,0.2l-0.3,0.1l-0.7,0.3
										l0.5,0.5l0.3,0.3c0.3,0.4,0.6,0.8,0.9,1.2l0.7,1.2l0.6-1.3c0.3-0.5,0.6-1.1,0.9-1.6L91.5,9l-0.9,0L90,9c-0.1,0-0.3,0-0.4,0
										c2.4-3.4,5.9-5.9,10.3-7.1c2.9-0.8,6,0.1,7.9,2.4c1.8,2.1,3.4,5.9,2.8,10.4c-0.1,1-0.4,2-0.7,3c4.9,1,8.8,3.8,11.5,8.2
										c2.2,3.6,2.3,7.8,0.1,11.4c3,4.3,3.9,9.5,2.5,14.7c-1.1,4.1-3.6,7.5-7.3,10c-0.4,0.2-0.7,0.5-1.1,0.7c0.3,1,0.4,2,0.4,3
										v1.6c1.5,0.6,2.9,1.4,4.1,2.6c2.2,2.1,3.4,5,3.4,8.1c0,3.1-1.2,5.9-3.4,8c-1.2,1.2-2.6,2.1-4.1,2.6v3
										c2.5,0.3,4.7,1.5,6.5,3.2C124.7,97.1,125.9,99.9,125.9,103z"/>
								</g>
							</g>
							<g>
								<g>
									<path class="st0" d="M90,9.8c-0.4,0.5-0.7,1.1-1,1.7c-0.3-0.5-0.6-0.9-1-1.3C88.7,9.9,89.3,9.8,90,9.8z"/>
									<path class="st0" d="M91.5,9l-0.8,1.2c-0.4,0.5-0.7,1.1-0.9,1.6l-0.6,1.3l-0.7-1.2c-0.3-0.4-0.6-0.8-0.9-1.2l-0.3-0.3
										l-0.5-0.5l0.7-0.3l0.3-0.1c0.2-0.1,0.3-0.1,0.5-0.2c0.4-0.1,0.9-0.2,1.3-0.2c0.1,0,0.3,0,0.4,0l0.6,0L91.5,9z"/>
								</g>
							</g>
						</g>
					</g>
				</g>
			</g>
		</g>
	</g>
	<g>
		<g>
			<g>
				<g>
					<g>
						<g>
							<path class="st1" d="M49.1,54.2c0,1-0.4,1.9-1.1,2.6c-0.7,0.7-1.6,1.1-2.6,1.1H28.9c-1,0-1.9-0.4-2.6-1.1
								c-0.7-0.8-1.1-1.6-1.1-2.7V15.6c0-1,0.4-1.9,1.1-2.6c0.7-0.7,1.6-1.1,2.6-1.1c1,0,1.9,0.4,2.6,1.1c0.7,0.7,1.1,1.6,1.1,2.6
								v34.8h12.7c1,0,1.9,0.4,2.6,1.1C48.7,52.3,49.1,53.2,49.1,54.2z"/>
						</g>
						<g>
							<path class="st1" d="M74.9,36.4c-0.1-0.5-0.2-1.1-0.4-1.6c-0.1-0.4-0.3-0.8-0.4-1.2c-0.7-1.6-1.6-3.1-2.9-4.4
								c-2.6-2.7-5.9-4-9.6-4h-0.2c-3.7,0-6.9,1.3-9.5,4c-2.6,2.6-4,5.8-4,9.5v5.8c0,3.7,1.4,6.9,4,9.4c2.6,2.6,5.8,3.9,9.5,3.9h0.2
								c4.5,0,8.2-1.9,10.9-5.5c0.7-1,0.9-2.1,0.6-3.3c-0.4-1.2-1.2-2-2.3-2.4c-1.7-0.6-3.2-0.1-4.2,1.3c-1.2,1.7-2.8,2.5-4.9,2.5
								h-0.2c-1.7,0-3.1-0.6-4.3-1.8c-1-1-1.6-2.1-1.7-3.4l13.2,0c2.5,0,4.4-1.1,5.6-3.3c0.1-0.2,0.2-0.4,0.3-0.6
								c0.4-0.8,0.6-1.7,0.6-2.7C75.1,37.9,75,37.1,74.9,36.4z M55.3,37.9c0.2-1.3,0.7-2.5,1.7-3.4c1.2-1.2,2.6-1.8,4.3-1.8h0.2
								c1.7,0,3.1,0.6,4.3,1.8c1,1,1.5,2.1,1.7,3.5H55.3z"/>
						</g>
						<g>
							<path class="st1" d="M93.5,54.2c0,1-0.4,1.9-1.1,2.6c-0.7,0.7-1.6,1.1-2.6,1.1c-3.7,0-6.9-1.3-9.6-4c-2.6-2.6-4-5.8-4-9.5V17
								c0-1,0.4-1.9,1.1-2.6c0.8-0.7,1.6-1.1,2.7-1.1c1,0,1.9,0.4,2.6,1.1c0.7,0.8,1.1,1.6,1.1,2.6v8.5h3.7c1,0,1.9,0.4,2.6,1.1
								c0.7,0.7,1.1,1.6,1.1,2.6s-0.4,1.9-1.1,2.6c-0.7,0.7-1.6,1.1-2.6,1.1h-3.7v11.4c0,1.7,0.6,3.1,1.8,4.3
								c1.2,1.2,2.6,1.8,4.3,1.8h0c1,0,1.9,0.4,2.6,1.1C93.2,52.3,93.5,53.2,93.5,54.2z"/>
						</g>
						<g>
							<path class="st1" d="M116.6,50c-0.6,2.3-2,4.2-4.2,5.7c-2.1,1.4-4.5,2.2-7.1,2.2c-2.3,0-4.4-0.6-6.3-1.7
								c-1.9-1.1-3.3-2.6-4.2-4.4c-0.6-1.2-0.5-2.5,0.2-3.6c0.8-1.1,2-1.7,3.4-1.7c1.6,0,2.9,0.8,3.7,2.2c0.6,1.2,1.7,1.8,3.2,1.8
								h0.2c1.1,0,2-0.4,2.7-1.1c0.7-0.7,0.9-1.5,0.8-2.4c-0.1-0.8-0.5-1.4-1.2-1.9c-0.7-0.5-1.5-0.8-2.5-0.8
								c-3.4-0.1-6.2-1.3-8.2-3.8c-2.1-2.5-2.7-5.4-1.8-8.6c0.6-2,1.9-3.8,3.8-5.1c1.9-1.3,4.1-1.9,6.4-1.9h0.1c4.1,0,7.2,1.7,9.2,5
								c0.8,1.2,0.8,2.5,0,3.7c-0.8,1.2-2,1.8-3.4,1.8c-1.5,0-2.7-0.7-3.5-1.9c-0.5-0.8-1.2-1.2-2.3-1.2c-0.7,0-1.3,0.2-1.8,0.5
								c-0.5,0.3-0.8,0.8-0.9,1.3c-0.2,0.7,0,1.3,0.5,1.8c0.5,0.6,1.2,0.9,2,0.9c3.7,0,6.7,1.3,9,3.9
								C116.8,43.5,117.6,46.6,116.6,50z"/>
						</g>
						<g>
							<path class="st1" d="M71.8,100.3c0.7,0.7,1.1,1.6,1.1,2.6c0,1-0.4,1.9-1.1,2.6c-0.7,0.7-1.6,1.1-2.6,1.1h-15
								c-1,0-1.9-0.4-2.6-1.1c-0.7-0.8-1.1-1.6-1.1-2.7v-38c0-1,0.4-1.9,1.1-2.6c0.8-0.7,1.6-1.1,2.7-1.1h15c1,0,1.9,0.4,2.6,1.1
								c0.7,0.7,1.1,1.6,1.1,2.6c0,1-0.4,1.9-1.1,2.6c-0.7,0.7-1.6,1.1-2.6,1.1H57.9v10.1h9.5c1,0,1.9,0.4,2.6,1.1
								c0.7,0.7,1.1,1.6,1.1,2.6c0,1-0.4,1.9-1.1,2.6c-0.7,0.7-1.6,1.1-2.6,1.1h-9.5v13.1h11.3C70.2,99.3,71.1,99.6,71.8,100.3z"/>
						</g>
						<g>
							<path class="st1" d="M98.1,74.9c-0.7-0.7-1.6-1.1-2.6-1.1c-1.5,0-2.6,0.6-3.2,1.7c-2-1.1-4.3-1.7-6.6-1.7h-0.2
								c-3.7,0-6.9,1.3-9.6,4c-2.6,2.6-4,5.8-4,9.6v5.8c0,3.7,1.3,6.9,4,9.5c2.6,2.6,5.8,4,9.6,4h0.2c2.4,0,4.6-0.6,6.6-1.7
								c0.6,1.1,1.7,1.7,3.2,1.7c1,0,1.9-0.4,2.6-1.1c0.7-0.7,1.1-1.6,1.1-2.6V77.5C99.3,76.5,98.9,75.7,98.1,74.9z M85.7,99.3h-0.2
								c-1.7,0-3.1-0.6-4.3-1.8c-1.2-1.2-1.8-2.6-1.8-4.3v-5.8c0-1.7,0.6-3.1,1.8-4.3c1.2-1.2,2.6-1.8,4.3-1.8h0.2
								c1.7,0,3.1,0.6,4.3,1.8c1.2,1.2,1.8,2.6,1.8,4.3v5.8c0,1.7-0.6,3.1-1.8,4.3C88.8,98.7,87.4,99.3,85.7,99.3z"/>
						</g>
						<g>
							<path class="st1" d="M118.3,102.9c0,1-0.4,1.9-1.1,2.6c-0.7,0.7-1.6,1.1-2.6,1.1c-3.7,0-7-1.3-9.6-4c-2.6-2.6-4-5.8-4-9.5
								V65.8c0-1,0.4-1.9,1.1-2.6c0.8-0.7,1.6-1.1,2.7-1.1c1,0,1.9,0.4,2.6,1.1c0.7,0.8,1.1,1.6,1.1,2.6v8.5h3.7
								c1,0,1.9,0.4,2.6,1.1c0.7,0.7,1.1,1.6,1.1,2.6c0,1-0.4,1.9-1.1,2.6c-0.7,0.7-1.6,1.1-2.6,1.1h-3.7v11.4
								c0,1.7,0.6,3.1,1.8,4.3c1.2,1.2,2.6,1.8,4.3,1.8c1.1,0,1.9,0.4,2.6,1.1C117.9,101.1,118.3,101.9,118.3,102.9z"/>
						</g>
						<g>
							<path class="st2" d="M95.6,23c0.3-2.3,1.1-5.4,3.4-8.4c-0.4,0.5-3,3.7-4.7,7.5c-0.5-3.2-0.7-10.4,7.7-12.9
								C102,9.2,107.1,15.3,95.6,23z"/>
							<path class="st2" d="M92.9,22.3c-0.1-0.9-0.5-2.2-1.4-3.5c0.2,0.2,1.2,1.5,1.9,3.1c0.2-1.3,0.3-4.3-3.2-5.3
								C90.3,16.6,88.2,19.1,92.9,22.3z"/>
						</g>
					</g>
				</g>
			</g>
		</g>
		<path class="st1" d="M39.8,95.6c-0.6-0.5-1.3-1.1-1.9-1.5c-6-3.9-11.2-8.7-15.5-14.4c-0.3-0.4-0.7-0.8-0.9-1.3
			c-0.1-0.2,0-0.7,0.2-0.9c0.1-0.1,0.6,0,0.8,0.1c0.4,0.3,0.6,0.7,0.9,1.1c4.3,5.5,9.5,10.1,15.4,13.8c0.7,0.4,1.5,0.7,2.3,1.1
			c0.1-0.2,0.2-0.3,0.3-0.5c-0.6-0.5-1.2-1-1.8-1.5c-5.7-3.8-10.7-8.4-14.9-13.9c-0.3-0.4-0.6-0.7-0.8-1.2c-0.1-0.2,0.1-0.7,0.2-0.9
			c0.1-0.1,0.6,0,0.7,0.1c0.4,0.3,0.7,0.8,1,1.2c4.1,5.1,8.9,9.5,14.5,12.9c0.7,0.4,1.4,0.6,2.1,1c0.1-0.2,0.2-0.3,0.3-0.5
			c-0.7-0.5-1.3-1.1-2-1.5C35.5,85.3,30.9,81,27,75.9c-0.2-0.3-0.6-0.6-0.7-1c-0.1-0.3,0.1-0.6,0.1-1c0.3,0.1,0.7,0,0.9,0.2
			c0.3,0.2,0.5,0.6,0.8,0.9c3.8,4.8,8.4,8.9,13.6,12.2c0.7,0.4,1.5,0.7,2.2,1.1c0.1-0.2,0.2-0.3,0.3-0.5c-0.5-0.5-1-1-1.6-1.4
			c-6.2-4-11.3-9.1-15.4-15.3c-0.9-1.4-1.9-2.4-3.9-1.8c-1.3,0.4-2-0.5-2.5-1.6c-2.8-6-4.6-12.3-5.2-18.9c-0.8-8,0.2-15.8,2.8-23.4
			c0-0.1,0.1-0.2,0.1-0.3c0.7-2.3-0.2-4.5-2-5c-1.7-0.4-3.7,0.9-4.2,3.2c-0.8,3.8-1.6,7.7-1.9,11.6c-0.8,12.1,1.8,23.4,7.8,34
			c0.8,1.4,1.1,2.6-0.2,3.9c-1.2,1.2-0.4,2.6,0.4,3.8c4.5,6.8,10.2,12.4,17,17c1.3,0.9,2.7,1.6,4.1,2.5C39.6,96,39.7,95.8,39.8,95.6
			z"/>
	</g>
</g>
</svg>
