<?xml version="1.0" encoding="utf-8"?>
<!-- Generator: Adobe Illustrator 25.2.3, SVG Export Plug-In . SVG Version: 6.00 Build 0)  -->
<svg version="1.1" id="Layer_1" xmlns="http://www.w3.org/2000/svg" xmlns:xlink="http://www.w3.org/1999/xlink" x="0px" y="0px"
	 viewBox="0 0 1417.3 592.4" style="enable-background:new 0 0 1417.3 592.4;" xml:space="preserve">
<style type="text/css">
	.st0{fill:#26D07C;}
	.st1{fill:#2A3251;}
	.st2{fill:#FFD45B;}
</style>
<g>
	<path class="st0" d="M0,490.4V196h1417.2v128.6c-171.7,144.3-467.7,267.8-802.6,267.8c-6,0-12,0-17.9-0.1
		C370.2,590,162.1,565.2,0,490.4z"/>
	<path class="st1" d="M0,446.7l0-251h1417.2v133.7c-171.7,144.3-468.4,240.4-803.4,240.4c-6,0-12,0-17.9-0.1
		C369.4,567.4,162.1,521.6,0,446.7z"/>
	<path class="st2" d="M1417.2,0l0.1,286.2c-166,114.4-412.9,186.9-688.5,186.9C431,473.2,164.9,387.3,0,256.7V0H1417.2z"/>
</g>
</svg>
